<svg xmlns="http://www.w3.org/2000/svg" viewBox="0 0 135 40">
  <path style="fill:#fff;fill-opacity:0" d="M-9.999-10h155v60h-155z" fill="none"/>
  <path d="M130 40H5c-2.75 0-5-2.25-5-5V5c0-2.75 2.25-5 5-5h125c2.75 0 5 2.25 5 5v30c0 2.75-2.25 5-5 5z" style="fill:#000"/>
  <path d="M130 .8c2.317 0 4.2 1.884 4.2 4.2v30c0 2.316-1.883 4.2-4.2 4.2H5A4.205 4.205 0 0 1 .8 35V5C.8 2.684 2.686.8 5 .8h125m0-.8H5C2.25 0 0 2.25 0 5v30c0 2.75 2.25 5 5 5h125c2.75 0 5-2.25 5-5V5c0-2.75-2.25-5-5-5z" style="fill:#b7b9bc"/>
  <path d="m20.718 19.424-10.647 11.3.002.007a2.875 2.875 0 0 0 4.236 1.734l.034-.02 11.984-6.914-5.61-6.107z" style="fill:#dc4d4e"/>
  <path d="m31.489 17.5-.01-.007-5.174-3-5.829 5.188 5.85 5.848 5.146-2.97a2.878 2.878 0 0 0 .017-5.06z" style="fill:#fcb813"/>
  <path d="M10.07 9.277a2.83 2.83 0 0 0-.097.74v19.968c0 .256.034.504.098.739l11.013-11.01L10.071 9.276z" style="fill:#0093d5"/>
  <path d="m20.796 20 5.51-5.508-11.97-6.94a2.881 2.881 0 0 0-4.265 1.722v.003l10.725 10.724z" style="fill:#00af62"/>
  <path d="M47.42 10.243c0 .838-.249 1.505-.746 2.003-.565.592-1.3.888-2.204.888-.866 0-1.603-.3-2.208-.9-.607-.601-.91-1.346-.91-2.234 0-.889.303-1.633.91-2.233.605-.601 1.342-.901 2.208-.901.43 0 .84.084 1.231.251.39.168.704.391.939.67l-.528.528c-.397-.474-.944-.711-1.642-.711a2.28 2.28 0 0 0-1.639.666c-.46.444-.691 1.02-.691 1.73s.23 1.286.691 1.73a2.28 2.28 0 0 0 1.639.667c.67 0 1.228-.224 1.676-.67.29-.291.458-.696.502-1.216H44.47v-.72h2.907c.028.156.042.307.042.452zm4.608-2.506h-2.732V9.64h2.464v.72h-2.464v1.903h2.732V13h-3.503V7h3.503v.737zM55.28 13h-.772V7.737h-1.676V7h4.123v.737H55.28V13zm4.659 0V7h.77v6h-.77zm4.19 0h-.772V7.737h-1.675V7h4.123v.737h-1.676V13zm9.481-.775c-.59.606-1.323.909-2.2.909-.877 0-1.61-.303-2.2-.91-.59-.605-.883-1.347-.883-2.224s.294-1.619.884-2.225c.588-.606 1.322-.91 2.199-.91.872 0 1.603.305 2.196.914.592.61.888 1.35.888 2.221 0 .877-.295 1.619-.884 2.225zm-3.83-.503c.444.45.987.675 1.63.675.642 0 1.186-.225 1.63-.675.444-.45.667-1.024.667-1.722s-.223-1.272-.667-1.722a2.201 2.201 0 0 0-1.63-.675c-.643 0-1.186.225-1.63.675-.444.45-.666 1.024-.666 1.722s.222 1.273.666 1.722zM75.576 13V7h.938l2.916 4.668h.033l-.033-1.157V7h.772v6h-.805l-3.05-4.894h-.034l.033 1.157V13h-.77z" style="fill:#fff;stroke:#fff;stroke-width:.2;stroke-miterlimit:10"/>
  <path d="M68.136 21.752c-2.352 0-4.269 1.788-4.269 4.253 0 2.449 1.917 4.253 4.27 4.253 2.352 0 4.269-1.804 4.269-4.253 0-2.465-1.917-4.253-4.27-4.253zm0 6.83c-1.288 0-2.4-1.063-2.4-2.577 0-1.53 1.112-2.578 2.4-2.578 1.29 0 2.4 1.047 2.4 2.578 0 1.514-1.11 2.577-2.4 2.577zm-9.313-6.83c-2.352 0-4.27 1.788-4.27 4.253 0 2.449 1.918 4.253 4.27 4.253 2.352 0 4.27-1.804 4.27-4.253 0-2.465-1.918-4.253-4.27-4.253zm0 6.83c-1.289 0-2.4-1.063-2.4-2.577 0-1.53 1.111-2.578 2.4-2.578s2.4 1.047 2.4 2.578c0 1.514-1.111 2.577-2.4 2.577zm-11.079-5.525v1.804h4.318c-.129 1.015-.467 1.756-.983 2.272-.628.628-1.61 1.32-3.335 1.32-2.658 0-4.736-2.142-4.736-4.8s2.078-4.801 4.736-4.801c1.434 0 2.481.564 3.255 1.289l1.272-1.273c-1.079-1.031-2.513-1.82-4.527-1.82-3.64 0-6.702 2.964-6.702 6.605 0 3.64 3.061 6.605 6.702 6.605 1.966 0 3.448-.644 4.608-1.853 1.192-1.192 1.563-2.867 1.563-4.22 0-.42-.033-.806-.097-1.128h-6.074zm45.309 1.401c-.355-.95-1.434-2.706-3.641-2.706-2.191 0-4.012 1.723-4.012 4.253 0 2.384 1.804 4.253 4.221 4.253 1.95 0 3.077-1.192 3.544-1.885l-1.45-.967c-.483.71-1.143 1.176-2.094 1.176-.95 0-1.627-.435-2.062-1.288l5.687-2.352-.193-.484zm-5.8 1.418c-.049-1.643 1.273-2.481 2.223-2.481.741 0 1.37.37 1.579.902l-3.802 1.579zM82.629 30h1.869V17.498h-1.869V30zm-3.06-7.298h-.065c-.42-.5-1.225-.95-2.24-.95-2.126 0-4.076 1.868-4.076 4.269 0 2.384 1.95 4.237 4.076 4.237 1.015 0 1.82-.451 2.24-.967h.064v.612c0 1.628-.87 2.498-2.272 2.498-1.143 0-1.852-.822-2.142-1.515l-1.627.677c.467 1.128 1.707 2.513 3.77 2.513 2.19 0 4.043-1.289 4.043-4.43v-7.637h-1.772v.693zm-2.144 5.88c-1.288 0-2.368-1.079-2.368-2.561 0-1.498 1.08-2.594 2.368-2.594 1.273 0 2.272 1.096 2.272 2.594 0 1.482-.999 2.561-2.272 2.561zM101.806 17.5h-4.47V30H99.2v-4.736h2.605c2.069 0 4.102-1.498 4.102-3.883s-2.033-3.882-4.102-3.882zm.049 6.025H99.2V19.24h2.654c1.395 0 2.187 1.155 2.187 2.142 0 .97-.792 2.143-2.187 2.143zm11.531-1.795c-1.35 0-2.75.595-3.329 1.914l1.657.691c.353-.692 1.013-.917 1.704-.917.965 0 1.947.58 1.963 1.609v.128c-.338-.193-1.062-.482-1.946-.482-1.786 0-3.603.98-3.603 2.814 0 1.673 1.463 2.75 3.104 2.75 1.254 0 1.946-.562 2.38-1.222h.065v.965h1.801v-4.793c0-2.219-1.657-3.457-3.796-3.457zm-.225 6.851c-.611 0-1.463-.305-1.463-1.062 0-.964 1.061-1.334 1.978-1.334.82 0 1.206.177 1.705.418a2.262 2.262 0 0 1-2.22 1.978zm10.583-6.578-2.14 5.42h-.064l-2.219-5.42h-2.01l3.329 7.575-1.898 4.214h1.946l5.13-11.789h-2.074zM106.937 30h1.866V17.5h-1.866V30z" style="fill:#fff"/>
</svg>
