<?xml version="1.0" encoding="UTF-8"?><svg xmlns="http://www.w3.org/2000/svg" xmlns:xlink="http://www.w3.org/1999/xlink" viewBox="0 0 175 100"><defs><style>.f{fill:none;}.g{fill:#231f20;}.h{clip-path:url(#c);}.i{clip-path:url(#d);}</style><clipPath id="c"><rect class="f" x="40.58" y="3.51" width="93.84" height="58.72"/></clipPath><clipPath id="d"><rect class="f" x="40.58" y="3.51" width="93.84" height="58.72"/></clipPath></defs><g id="a"/><g id="b"><g><g><path class="g" d="M9.59,90.94c0-3.23,2.17-5.55,5.9-5.55s5.9,2.32,5.9,5.55-2.15,5.55-5.9,5.55-5.9-2.32-5.9-5.55Zm10.34,0c0-2.69-1.68-4.3-4.44-4.3s-4.42,1.62-4.42,4.3,1.68,4.3,4.42,4.3,4.44-1.62,4.44-4.3Z"/><path class="g" d="M25.09,86.85v3.33h5.66v1.25h-5.66v4.85h-1.46v-10.68h7.96l.49,1.25h-6.99Z"/><path class="g" d="M35.74,86.85v3.33h5.66v1.25h-5.66v4.85h-1.46v-10.68h7.96l.49,1.25h-6.99Z"/><path class="g" d="M44.93,96.28v-10.68h1.46v10.68h-1.46Z"/><path class="g" d="M48.62,90.94c0-3.23,2.3-5.55,5.89-5.55,2.18,0,3.91,.84,4.96,1.97v.32l-.81,.76c-1.11-1.1-2.43-1.8-4.15-1.8-2.65,0-4.41,1.62-4.41,4.3s1.75,4.3,4.41,4.3c1.8,0,3.02-.64,4.15-1.8l.79,.75v.32c-1.08,1.21-2.7,1.98-4.94,1.98-3.59,0-5.89-2.32-5.89-5.55Z"/><path class="g" d="M61.59,96.28v-10.68h1.46v10.68h-1.46Z"/><path class="g" d="M71.43,85.6l4.73,10.36v.32h-1.42l-1.21-2.75h-6.18l-1.21,2.75h-1.42v-.32l4.75-10.36h1.95Zm-3.52,6.68h5.08l-2.38-5.45h-.32l-2.38,5.45Z"/><path class="g" d="M79.31,95.03h7.14l-.49,1.25h-8.12v-10.68h1.46v9.43Z"/><path class="g" d="M96.62,96.28l-4.73-10.36v-.32h1.45l4.04,9.26h.32l4.03-9.26h1.46v.32l-4.75,10.36h-1.83Z"/><path class="g" d="M106.42,95.03h7.51l-.49,1.25h-8.48v-10.68h8.33l.49,1.25h-7.35v3.33h5.65v1.25h-5.65v3.6Z"/><path class="g" d="M124.76,85.6h1.46v10.68h-1.46v-5.02h-7.14v5.02h-1.46v-10.68h1.46v4.41h7.14v-4.41Z"/><path class="g" d="M128.94,96.28v-10.68h1.46v10.68h-1.46Z"/><path class="g" d="M132.63,90.94c0-3.23,2.3-5.55,5.89-5.55,2.18,0,3.91,.84,4.96,1.97v.32l-.81,.76c-1.11-1.1-2.43-1.8-4.15-1.8-2.65,0-4.41,1.62-4.41,4.3s1.75,4.3,4.41,4.3c1.8,0,3.02-.64,4.15-1.8l.79,.75v.32c-1.08,1.21-2.7,1.98-4.94,1.98-3.59,0-5.89-2.32-5.89-5.55Z"/><path class="g" d="M147.07,95.03h7.14l-.49,1.25h-8.12v-10.68h1.46v9.43Z"/><path class="g" d="M157.9,95.03h7.51l-.49,1.25h-8.48v-10.68h8.33l.49,1.25h-7.35v3.33h5.65v1.25h-5.65v3.6Z"/></g><g><path class="g" d="M69.34,27.13c21.33,3.06,22.7,5.08,28.03,5.08,4.13,0,7.54-1.27,10.1-3.41-8.03-2.12-25.2-2.57-38.13-1.68h0Z"/><g class="h"><path class="g" d="M110.83,10.8c-20.62-1.47-40.41,1.96-58.2,9.36,21.71,1.3,37.94,3.16,56.43,7.1,2.24-2.52,3.59-5.84,3.59-9.47,0-2.54-.66-4.93-1.83-6.99h0Z"/><path class="g" d="M97.79,3.51c-10.97,0-25.21,4.07-36.22,8.15,15.03-2.91,33.68-3.66,48.01-2.7-2.17-2.62-5.58-5.45-11.8-5.45h0Z"/></g><path class="g" d="M55.01,52.68c.9,.47,2.66,1.09,4.14,1.09,1.29,0,1.98-.46,2.07-1.14,.09-.68-.35-1.17-1.68-1.8-1.68-.8-3.01-1.97-2.78-3.7,.37-2.88,3.41-4.79,7.36-4.79,1.79,0,2.86,.28,3.59,.58l-.97,3.13c-.62-.29-1.85-.72-3.2-.72-1.19,0-2.07,.48-2.17,1.22-.07,.57,.49,1.05,1.67,1.6,1.56,.77,3.17,1.88,2.92,3.82-.41,3.19-3.62,4.9-7.66,4.9-1.94,0-3.33-.4-4.32-.89l1.01-3.3h0Z"/><path class="g" d="M81.03,48.09c-.28,2.39-1.92,5.67-4.17,5.67-1.43,0-2.1-1.08-1.9-2.71,.23-2.17,1.83-5.61,4.2-5.61,1.65,0,2.03,1.37,1.88,2.65h0Zm-.87-5.76c-3.99,0-8.07,3.23-9.31,7.23-1.24,3.99,.76,7.31,4.75,7.31,4.42,0,8.3-3.31,9.54-7.3,1.24-3.99-.99-7.23-4.98-7.23h0Z"/><path class="g" d="M89.57,53.07c.41,.43,1.01,.69,1.8,.69,2.19,0,4.48-3.3,4.8-6.04,.13-1.11-.19-2.28-1.53-2.28-1.54,0-3.36,1.94-4.19,4.67l-.89,2.96h0Zm-6.92,9.15l4.35-14.19c.51-1.65,1.15-3.96,1.49-5.39h3.7l-.52,2.15h.06c1.29-1.56,3.08-2.46,4.76-2.46,3.02,0,4.19,2.42,3.85,5.27-.57,4.84-4.33,9.26-9.18,9.26-1.14,0-2.08-.29-2.53-.57h-.05l-1.83,5.93h-4.1Z"/><path class="g" d="M109.04,45.33c-1.91,0-3.18,1.57-3.62,2.88,3.19,.03,4.84-.43,4.99-1.68,.08-.71-.43-1.2-1.37-1.2h0Zm1.88,10.65c-1.72,.7-3.27,.89-4.81,.89-3.99,0-5.78-2.25-5.35-5.87,.5-4.25,4.1-8.66,9.14-8.66,2.82,0,4.66,1.57,4.35,4.16-.42,3.56-4.02,4.84-9.59,4.7-.05,.4,.02,1.03,.26,1.42,.46,.71,1.35,1.14,2.55,1.14,1.51,0,3.28-.54,4.45-1.08l-1.01,3.3h0Z"/><g class="i"><path class="g" d="M113.1,56.56l2.87-9.38c.53-1.77,.92-3.31,1.23-4.53h3.69l-.52,2.15h.06c1.53-1.82,3.32-2.47,5.18-2.47,2.28,0,3.4,1.4,3.11,3.79-.07,.63-.31,1.68-.51,2.37l-2.49,8.07h-4.1s1.86-6.04,2.39-7.78c.6-1.98,.62-3.34-.89-3.34-1.43,0-2.98,1.54-3.95,4.7-.97,3.15-1.98,6.42-1.98,6.42h-4.1Z"/><path class="g" d="M56.24,42.65l-2.87,9.38c-.52,1.77-.92,3.31-1.23,4.53h-3.69l.52-2.15h-.06c-1.53,1.82-3.32,2.47-5.18,2.47-2.28,0-3.4-1.4-3.12-3.79,.07-.63,.31-1.68,.51-2.37l2.49-8.07h4.1s-1.86,6.04-2.39,7.78c-.6,1.98-.62,3.34,.89,3.34,1.43,0,2.98-1.54,3.95-4.7,.97-3.15,1.98-6.42,1.98-6.42h4.1Z"/><path class="g" d="M132.87,39.57c0-.27-.17-.41-.48-.41h-.65v.83h.61c.35,0,.51-.13,.51-.41h0Zm.32,0c0,.37-.22,.61-.56,.69l.55,1.04h-.38l-.53-1.01h-.52v1.02h-.32v-2.43h.97c.44,0,.78,.21,.78,.69h0Zm.93,.55c0-1.13-.83-1.92-1.91-1.91-1.08,0-1.9,.8-1.89,1.93,0,1.13,.83,1.92,1.91,1.91,1.08,0,1.9-.8,1.89-1.93h0Zm.3,0c0,1.31-.94,2.21-2.19,2.21-1.25,0-2.21-.88-2.21-2.19,0-1.31,.94-2.21,2.19-2.21,1.25,0,2.21,.88,2.21,2.19h0Z"/></g></g></g></g><g id="e"/></svg>